<svg xmlns="http://www.w3.org/2000/svg" xmlns:xlink="http://www.w3.org/1999/xlink" version="1.1" x="0px" y="0px" viewBox="112 132.25 58.5 60" enable-background="new 112 132.25 58.5 48" xml:space="preserve"><g><path fill="none" d="M126.433,147.129c-2.564,0-4.649,2.086-4.649,4.649s2.086,4.649,4.649,4.649c2.564,0,4.649-2.086,4.649-4.649   S128.996,147.129,126.433,147.129z"/></g><g><path fill="none" d="M126.382,143.012c-5.533,0-10.034,4.467-10.034,9.957c0,4.206,5.724,12.913,8.744,17.215   c0.299-0.011,0.601-0.018,0.908-0.018c0.563,0,1.112,0.022,1.648,0.059c3.015-4.272,8.767-12.979,8.767-17.256   C136.415,147.479,131.915,143.012,126.382,143.012z M126.433,157.715c-3.274,0-5.937-2.663-5.937-5.937s2.663-5.937,5.937-5.937   c3.274,0,5.937,2.663,5.937,5.937S129.706,157.715,126.433,157.715z"/></g><g><path d="M116.348,152.97c0-5.49,4.5-9.957,10.034-9.957s10.034,4.467,10.034,9.957c0,4.277-5.752,12.984-8.767,17.256   c0.529,0.036,1.04,0.089,1.535,0.157c3.184-4.56,8.57-12.939,8.57-17.412c0-6.225-5.1-11.293-11.372-11.293   c-6.27,0-11.372,5.068-11.372,11.293c0,4.391,5.332,12.731,8.521,17.326c0.506-0.053,1.025-0.092,1.561-0.112   C122.072,165.882,116.348,157.176,116.348,152.97z"/></g><g><path d="M126.433,145.842c-3.274,0-5.937,2.663-5.937,5.937s2.663,5.937,5.937,5.937c3.274,0,5.937-2.663,5.937-5.937   S129.706,145.842,126.433,145.842z M126.433,156.428c-2.564,0-4.649-2.086-4.649-4.649s2.086-4.649,4.649-4.649   c2.564,0,4.649,2.086,4.649,4.649S128.996,156.428,126.433,156.428z"/></g><g><path d="M126,177.75c-5.468,0-9.75-1.721-9.75-3.917c0-1.814,2.916-3.336,7.256-3.786l0.146-0.015l0.084,0.121   c1.34,1.932,2.301,3.2,2.311,3.213c0.155,0.208,0.51,0.21,0.667,0.001c0.01-0.014,0.934-1.223,2.265-3.129l0.088-0.125l0.151,0.021   c3.968,0.546,6.532,1.998,6.532,3.699C135.75,176.029,131.468,177.75,126,177.75z M123.41,170.561   c-3.868,0.428-6.66,1.795-6.66,3.272c0,1.853,4.236,3.417,9.25,3.417s9.25-1.564,9.25-3.417c0-1.373-2.438-2.673-5.949-3.183   c-1.29,1.843-2.18,3.007-2.189,3.02c-0.343,0.455-1.12,0.453-1.463-0.002C125.639,173.656,124.712,172.433,123.41,170.561z"/></g><g><path d="M126.382,173.829c0.214,0,0.416-0.1,0.545-0.272c0.128-0.167,1.058-1.395,2.33-3.217c-0.507-0.07-1.033-0.124-1.575-0.161   c-0.526,0.745-0.98,1.374-1.3,1.81c-0.324-0.445-0.787-1.089-1.323-1.852c-0.55,0.02-1.083,0.061-1.602,0.115   c1.296,1.868,2.248,3.135,2.377,3.305C125.964,173.729,126.167,173.829,126.382,173.829z"/></g><g><ellipse cx="126" cy="173.833" rx="3.886" ry="1.5"/></g><g><circle fill="none" cx="160.833" cy="139.545" r="2.622"/></g><g><path fill="none" d="M160.805,134.601c-3.12,0-5.658,2.519-5.658,5.615c0,2.686,4.138,8.625,5.513,10.525c0.003,0,0.005,0,0.008,0   c0.095,0,0.183,0.009,0.277,0.011c1.369-1.881,5.52-7.807,5.52-10.535C166.463,137.12,163.925,134.601,160.805,134.601z    M160.833,142.893c-1.846,0-3.348-1.502-3.348-3.348s1.502-3.348,3.348-3.348s3.348,1.502,3.348,3.348   S162.679,142.893,160.833,142.893z"/></g><g><path d="M155.146,140.217c0-3.096,2.538-5.615,5.658-5.615c3.12,0,5.658,2.519,5.658,5.615c0,2.729-4.151,8.654-5.52,10.535   c0.308,0.007,0.606,0.026,0.894,0.055c1.627-2.261,5.38-7.784,5.38-10.591c0-3.51-2.876-6.368-6.413-6.368   c-3.536,0-6.413,2.858-6.413,6.368c0,2.759,3.727,8.273,5.362,10.56c0.293-0.023,0.596-0.035,0.906-0.035   C159.284,148.842,155.146,142.903,155.146,140.217z"/></g><g><path d="M160.833,136.197c-1.846,0-3.348,1.502-3.348,3.348s1.502,3.348,3.348,3.348s3.348-1.502,3.348-3.348   S162.679,136.197,160.833,136.197z M160.833,142.167c-1.446,0-2.622-1.176-2.622-2.622s1.176-2.622,2.622-2.622   c1.446,0,2.622,1.176,2.622,2.622S162.279,142.167,160.833,142.167z"/></g><g><path d="M160.667,154.509c-2.741,0-4.808-0.863-4.808-2.009c0-1.151,1.946-1.82,3.875-1.973l0.141-0.012l0.082,0.115   c0.411,0.575,0.695,0.955,0.745,1.021s0.154,0.065,0.202,0.002c0.052-0.066,0.328-0.434,0.73-0.992l0.085-0.117l0.144,0.015   c2.193,0.226,3.61,0.988,3.61,1.941C165.474,153.646,163.407,154.509,160.667,154.509z M159.634,151.037   c-2.053,0.188-3.274,0.884-3.274,1.463c0,0.714,1.77,1.509,4.308,1.509s4.307-0.795,4.307-1.509c0-0.529-1.057-1.2-3.019-1.428   c-0.361,0.499-0.606,0.824-0.652,0.885c-0.233,0.309-0.767,0.308-1-0.004C160.258,151.894,160.004,151.556,159.634,151.037z"/></g><g><path d="M160.805,151.99c0.125,0,0.243-0.058,0.318-0.159c0.053-0.069,0.348-0.461,0.778-1.058   c-0.306-0.031-0.622-0.051-0.949-0.059c-0.049,0.068-0.105,0.144-0.147,0.202c-0.044-0.061-0.102-0.141-0.154-0.213   c-0.329,0-0.65,0.013-0.961,0.037c0.439,0.614,0.742,1.019,0.796,1.09C160.561,151.932,160.68,151.99,160.805,151.99z"/></g><g><ellipse cx="160.667" cy="152.5" rx="1.864" ry="0.719"/></g><g><path d="M126.45,174.069l-0.137-0.48c1.696-0.48,3.916-1.057,6.266-1.668c7.633-1.983,20.408-5.304,20.307-7.086   c-0.013-0.221-0.371-0.781-3.421-1.213c-7.156-1.013-8.069-2.122-8.134-2.868c-0.093-1.091,1.98-1.791,2.218-1.867l17.027-6.62   l0.182,0.467l-17.042,6.625c-0.646,0.208-1.934,0.806-1.886,1.353c0.034,0.403,0.854,1.447,7.705,2.417   c2.617,0.37,3.805,0.888,3.85,1.679c0.116,2.03-8.892,4.535-20.68,7.599C130.358,173.015,128.141,173.591,126.45,174.069z"/></g></svg>
