<svg xmlns:dc="http://purl.org/dc/elements/1.1/" xmlns:cc="http://creativecommons.org/ns#" xmlns:rdf="http://www.w3.org/1999/02/22-rdf-syntax-ns#" xmlns:svg="http://www.w3.org/2000/svg" xmlns="http://www.w3.org/2000/svg" version="1.1" x="0px" y="0px" viewBox="0 0 100 100"><path d="M 76.570312 5.0253906 A 21.882444 7.2972321 81.792382 0 0 72.470703 27.724609 A 21.882444 7.2972321 81.792382 0 0 76.517578 42.142578 C 75.178747 42.624871 73.892412 43.318214 72.712891 44.246094 C 72.319521 44.555545 71.951376 44.884428 71.601562 45.226562 A 28.214726 14.102637 20.244433 0 0 51.914062 31.419922 A 28.214726 14.102637 20.244433 0 0 29.554688 28.744141 A 4.8648648 4.8627217 0.0026516742 0 0 28.626953 24.708984 A 4.8648648 4.8627217 0.0026516742 0 0 21.796875 23.894531 A 4.8648648 4.8627217 0.0026516742 0 0 20.982422 30.724609 A 4.8648648 4.8627217 0.0026516742 0 0 22.533203 32.009766 A 28.214726 14.102637 20.244433 0 0 20.558594 34.884766 A 28.214726 14.102637 20.244433 0 0 20.580078 40.3125 A 4.3765282 8.7566004 78.370195 0 0 13.533203 46.216797 A 4.3765282 8.7566004 78.370195 0 0 22.994141 48.738281 A 4.3765282 8.7566004 78.370195 0 0 25.705078 47.9375 A 28.214726 14.102637 20.244433 0 0 42.144531 57.878906 A 28.214726 14.102637 20.244433 0 0 60.164062 61.052734 A 8.7530566 4.3783001 78.353573 0 0 60.4375 65.783203 A 8.7530566 4.3783001 78.353573 0 0 66.492188 73.474609 A 8.7530566 4.3783001 78.353573 0 0 69.013672 64.017578 A 8.7530566 4.3783001 78.353573 0 0 67.476562 59.712891 A 28.214726 14.102637 20.244433 0 0 68.273438 59.390625 C 68.757439 60.790216 69.465735 62.13599 70.433594 63.365234 C 75.086207 69.27437 83.650742 70.297074 89.5625 65.646484 C 95.474258 60.995894 96.496363 52.436479 91.84375 46.527344 C 90.438299 44.742319 88.671045 43.414109 86.732422 42.542969 A 21.882444 7.2972321 81.792382 0 0 86.916016 25.642578 A 21.882444 7.2972321 81.792382 0 0 76.570312 5.0253906 z M 5 44.427734 L 5 95 L 95 95 L 5 44.427734 z M 86.224609 49.660156 C 86.597677 49.666456 86.975326 49.738995 87.34375 49.880859 C 89.027956 50.529383 89.865598 52.420088 89.216797 54.103516 C 88.568005 55.787034 86.676394 56.62704 84.992188 55.978516 C 83.307973 55.329992 82.470349 53.439287 83.119141 51.755859 C 83.626021 50.440639 84.89224 49.637846 86.224609 49.660156 z " style="color:#000000;display:inline;overflow:visible;visibility:visible;opacity:0.98009997;fill:#000000;fill-opacity:1;fill-rule:nonzero;stroke:none;stroke-width:3.19927812;marker:none;enable-background:accumulate"/></svg>
