<svg xmlns="http://www.w3.org/2000/svg" xmlns:xlink="http://www.w3.org/1999/xlink" version="1.1" x="0px" y="0px" viewBox="0 0 100 100" enable-background="new 0 0 100 100" xml:space="preserve"><path d="M32.5,35.1c-1.8,0-3.2,1.5-3.2,3.2V50c0,0.1,0,0.1,0,0.2c0,0.1,0,0.2,0,0.4c0,0.1,0,0.2,0.1,0.3c0,0.1,0.1,0.2,0.1,0.3  c0,0.1,0.1,0.2,0.1,0.3c0,0.1,0,0.1,0.1,0.2l5.8,10.1c0.6,1,1.7,1.6,2.8,1.6c0.5,0,1.1-0.1,1.6-0.4c1.6-0.9,2.1-2.9,1.2-4.4  l-5.4-9.4V38.3C35.7,36.5,34.3,35.1,32.5,35.1z"/><path d="M90.9,23.4H32.5c0,0,0,0,0,0c-7.1,0-13.8,2.8-18.8,7.8c-5,5-7.8,11.7-7.8,18.8s2.8,13.8,7.8,18.8c5.2,5.2,12,7.8,18.8,7.8  c6.8,0,13.6-2.6,18.8-7.8c1.2-1.2,2.3-2.5,3.2-3.9h7.2c1.8,0,3.2-1.5,3.2-3.2c0-1.8-1.5-3.2-3.2-3.2h-9c0,0-0.1,0-0.1,0  c-0.1,0-0.2,0-0.3,0c-0.1,0-0.2,0-0.4,0.1c-0.1,0-0.1,0-0.2,0.1c-0.1,0-0.3,0.1-0.4,0.1c-0.1,0-0.1,0.1-0.2,0.1  c-0.1,0.1-0.2,0.1-0.3,0.2c-0.1,0-0.1,0.1-0.2,0.1c-0.1,0.1-0.2,0.2-0.3,0.3c0,0-0.1,0.1-0.1,0.2c-0.1,0.1-0.2,0.2-0.3,0.4  c0,0,0,0,0,0.1c-0.9,1.5-2,2.9-3.2,4.2c-7.8,7.8-20.6,7.8-28.4,0c-3.8-3.8-5.9-8.8-5.9-14.2s2.1-10.4,5.9-14.2  c3.8-3.8,8.8-5.9,14.2-5.9h58.4c1.8,0,3.2-1.5,3.2-3.2S92.6,23.4,90.9,23.4z"/><path d="M85,35.1H61.7c-1.8,0-3.2,1.5-3.2,3.2s1.5,3.2,3.2,3.2H85c1.8,0,3.2-1.5,3.2-3.2S86.8,35.1,85,35.1z"/><path d="M73.3,46.8H55.8c-1.8,0-3.2,1.5-3.2,3.2c0,1.8,1.5,3.2,3.2,3.2h17.5c1.8,0,3.2-1.5,3.2-3.2C76.6,48.2,75.1,46.8,73.3,46.8z"/></svg>
