<svg xmlns:dc="http://purl.org/dc/elements/1.1/" xmlns:cc="http://creativecommons.org/ns#" xmlns:rdf="http://www.w3.org/1999/02/22-rdf-syntax-ns#" xmlns:svg="http://www.w3.org/2000/svg" xmlns="http://www.w3.org/2000/svg" version="1.1" x="0px" y="0px" viewBox="0 0 100 100"><path d="M 39.06803,5.0083467 C 33.259046,5.1356596 27.403227,6.7201408 22.052304,9.902849 6.4859864,19.161636 0.74774862,38.648788 8.3080831,54.711177 l 0.087891,-0.05273 c 0.4170274,1.044174 0.9177227,2.064009 1.5039151,3.050763 2.4668188,4.152325 6.1581628,7.233067 10.5742808,9.1894 0.107834,0.04777 0.217479,0.09225 0.326174,0.13867 0.431124,0.184125 0.868388,0.356689 1.312508,0.519529 0.123857,0.04541 0.246273,0.09297 0.371096,0.136717 1.111349,0.389551 2.259129,0.713823 3.439473,0.970697 0.121659,0.02647 0.244879,0.04917 0.36719,0.07422 0.46678,0.09563 0.938309,0.180981 1.414071,0.255858 0.159274,0.02506 0.3183,0.04954 0.478519,0.07227 0.547618,0.07771 1.098414,0.144966 1.656259,0.195312 0.04847,0.0044 0.09599,0.01146 0.144532,0.01563 0.631698,0.05423 1.27114,0.08842 1.914074,0.107421 0.08822,0.0026 0.177215,0.002 0.265626,0.0039 0.553206,0.01215 1.109863,0.01009 1.669932,-0.0039 0.0694,-0.0017 0.137541,0.0021 0.207033,0 3.93e-4,-0.0019 -3.93e-4,-0.004 0,-0.0059 6.483756,-0.199204 13.376796,-2.143759 19.800898,-5.964808 5.900147,-3.509368 10.599308,-8.122807 13.863362,-13.193281 0.0014,5.1e-4 0.0025,0.0014 0.0039,0.002 0.03777,-0.05866 0.07004,-0.118948 0.107423,-0.177733 0.297115,-0.467261 0.582998,-0.937701 0.855474,-1.412102 0.04939,-0.08597 0.09987,-0.171629 0.148438,-0.25781 0.621433,-1.10288 1.17506,-2.222126 1.660167,-3.353496 0.06296,-0.14677 0.121025,-0.294273 0.181641,-0.441404 0.173763,-0.421926 0.339793,-0.845062 0.494144,-1.269523 0.05611,-0.154237 0.112495,-0.308373 0.166017,-0.462888 0.17583,-0.507774 0.338698,-1.015329 0.486331,-1.525381 0.0157,-0.05421 0.0354,-0.107879 0.05078,-0.162109 0.161212,-0.568816 0.300228,-1.13891 0.425783,-1.708974 0.02639,-0.119741 0.04747,-0.239618 0.07227,-0.359373 0.09663,-0.466921 0.181627,-0.933761 0.253907,-1.400383 0.02081,-0.134296 0.04177,-0.268111 0.06055,-0.402341 0.0025,-0.01757 0.0054,-0.03516 0.0078,-0.05273 0.0027,3.48e-4 0.0051,0.0016 0.0078,0.002 0.0076,-0.05478 0.0084,-0.109292 0.01563,-0.164061 0.05269,-0.39985 0.09445,-0.798469 0.128907,-1.197259 0.007,-0.08131 0.02108,-0.162884 0.02734,-0.24414 -0.0013,-2.95e-4 -0.0027,2.96e-4 -0.0039,0 0.0082,-0.106803 0.01653,-0.213613 0.02344,-0.32031 0.0063,-0.09725 0.0085,-0.193858 0.01367,-0.291014 0.02643,-0.494255 0.03747,-0.987377 0.03516,-1.478506 -8.31e-4,-0.178629 -0.0031,-0.357026 -0.0078,-0.535154 -0.01312,-0.499777 -0.04037,-0.997097 -0.08398,-1.492178 -0.0076,-0.08635 -0.009,-0.173572 -0.01758,-0.259765 -0.05625,-0.567562 -0.139175,-1.12984 -0.23633,-1.689443 -0.0279,-0.160837 -0.06048,-0.320372 -0.0918,-0.480465 -0.08709,-0.444986 -0.187114,-0.887487 -0.300783,-1.326164 -0.03555,-0.137282 -0.06729,-0.275497 -0.10547,-0.412107 -0.151484,-0.541815 -0.324442,-1.077143 -0.517581,-1.607413 -0.05206,-0.143003 -0.110898,-0.283689 -0.166016,-0.425778 -0.161335,-0.415738 -0.335729,-0.826965 -0.523441,-1.234368 -0.07152,-0.155276 -0.141413,-0.310856 -0.216798,-0.464841 -0.239043,-0.488173 -0.49524,-0.970983 -0.773442,-1.445304 -0.02062,-0.03516 -0.0358,-0.07234 -0.05664,-0.107421 -0.293096,-0.493377 -0.604521,-0.972378 -0.931646,-1.435538 -0.326878,-0.463374 -0.670579,-0.91098 -1.029303,-1.343743 l 0.08789,-0.05273 c -0.307143,-0.419394 -0.622461,-0.828552 -0.945315,-1.23054 -0.0052,-0.0065 -0.01038,-0.01302 -0.01563,-0.01953 -0.206083,-0.25622 -0.420575,-0.502837 -0.632816,-0.751948 -0.114725,-0.134528 -0.225342,-0.273714 -0.341799,-0.406248 0,0 -0.002,0.002 -0.002,0.002 C 59.122618,8.9755302 49.168984,4.7869687 39.06803,5.0083467 Z m 42.670173,3.9765389 c -3.26369,0.04257 -6.772931,1.0053024 -10.041074,2.9492014 -1.981759,1.178813 -3.688623,2.607922 -5.082062,4.185522 1.068179,1.097904 2.070604,2.275953 2.998065,3.535135 l -0.08984,0.05664 c 0.721618,0.863004 1.37866,1.786666 1.964855,2.77342 2.568745,4.323872 3.433712,9.285226 2.837907,14.351478 -0.548323,4.658781 -2.332175,9.406278 -5.210968,13.833902 0.06637,0.01782 0.13235,0.03768 0.19922,0.05469 5.960183,1.516851 11.646619,-0.616891 12.701247,-4.765597 0.806866,-3.173997 -1.334568,-6.604662 -5.052764,-8.722604 2.685466,-0.327121 5.467706,-1.254433 8.093798,-2.816389 8.044659,-4.784913 11.575782,-13.696438 7.886764,-19.906132 -2.190359,-3.686921 -6.43514,-5.5915461 -11.205148,-5.5292664 z m 3.898461,6.5077744 c 0.917816,1.54484 0.40923,3.53865 -1.134773,4.457005 -1.544004,0.918354 -3.53924,0.412124 -4.457057,-1.132807 l 5.59183,-3.324198 z M 95,44.617487 5.4311129,95 95,95 95,44.617487 Z M 18.632362,67.326336 c -1.033946,5.573669 1.084871,10.677942 4.990265,11.671806 4.030047,1.025814 8.478982,-2.704318 10.117246,-8.390575 -5.547553,0.137969 -10.763091,-0.975443 -15.107511,-3.281231 z" style="color:#000000;display:inline;overflow:visible;visibility:visible;opacity:0.98999999;fill:#000000;fill-opacity:1;fill-rule:nonzero;stroke:none;stroke-width:3.19927812;marker:none;enable-background:accumulate"/></svg>
